<svg width="592" height="512" fill="none" xmlns="http://www.w3.org/2000/svg"><path opacity=".4" d="M160 240v-32m290 32v-32" stroke="#454545" stroke-width="4"/><path opacity=".4" fill-rule="evenodd" clip-rule="evenodd" d="M298 495.403V512h4v-16.597-.083c.045-5.485 4.505-9.917 10-9.917h132c7.732 0 14-6.268 14-14V448h-4v23.403c0 5.522-4.477 10-10 10H312c-5.093 0-9.55 2.719-12 6.784-2.45-4.065-6.907-6.784-12-6.784H156c-5.523 0-10-4.478-10-10V448h-4v23.403c0 7.732 6.268 14 14 14h132c5.495 0 9.955 4.432 10 9.917v.083z" fill="#454545"/><rect x="11" width="569" height="208" rx="8" fill="#6350C3" fill-opacity=".1" style="mix-blend-mode:multiply"/><g filter="url(#filter0_d_4590_31308)"><rect x="327" y="34" width="88" height="117" rx="4" fill="#fff" shape-rendering="crispEdges"/><path d="M327 38a4 4 0 0 1 4-4h38v23a4 4 0 0 1-4 4h-38V38z" fill="#D75C48"/><path d="M337.781 53.195c-.797 0-1.375-.586-1.375-1.36 0-.773.578-1.35 1.375-1.35.805 0 1.375.578 1.375 1.35 0 .774-.57 1.36-1.375 1.36zm3.922 2.657V44.398h2.281v1.329h.141c.445-.922 1.359-1.47 2.578-1.47 2.149 0 3.492 1.688 3.492 4.43v.016c0 2.766-1.312 4.43-3.492 4.43-1.18 0-2.141-.57-2.578-1.508h-.141v4.227h-2.281zm4.219-4.61c1.203 0 1.953-.96 1.953-2.539v-.016c0-1.578-.742-2.539-1.953-2.539-1.203 0-1.961.961-1.961 2.54v.015c0 1.578.766 2.54 1.961 2.54zm6.805 4.79c-.266 0-.555-.009-.821-.024v-1.719c.156.016.383.023.594.023.812 0 1.281-.312 1.445-.984l.078-.328L351 44.398h2.508l1.804 6.516h.157l1.804-6.516h2.407l-2.93 8.594c-.766 2.274-1.898 3.04-4.023 3.04z" fill="#fff"/><path fill="#E2E2E2" d="M339 77H403V82H339z"/><path fill="#E2E2E2" d="M339 86H403V91H339z"/><path fill="#E2E2E2" d="M339 95H403V100H339z"/><path fill="#E2E2E2" d="M339 104H403V109H339z"/><path fill="#E2E2E2" d="M339 113H367V118H339z"/></g><g filter="url(#filter1_d_4590_31308)"><rect x="391" y="46" width="88" height="117" rx="4" fill="#fff" shape-rendering="crispEdges"/><path d="M391 50a4 4 0 0 1 4-4h32v23a4 4 0 0 1-4 4h-32V50z" fill="#D75C48"/><path d="M401.781 65.195c-.797 0-1.375-.586-1.375-1.36 0-.773.578-1.35 1.375-1.35.805 0 1.375.578 1.375 1.35 0 .774-.57 1.36-1.375 1.36zm5.078-10.117c-.703 0-1.289-.562-1.289-1.266 0-.71.586-1.273 1.289-1.273s1.282.563 1.282 1.273c0 .704-.579 1.266-1.282 1.266zm-1.914 12.852c-.203 0-.476-.016-.609-.024v-1.719c.086.008.187.008.289.008.781 0 1.094-.265 1.094-.976v-8.82H408v8.882c0 1.758-1.062 2.649-3.055 2.649zm8.774-2.75c-2.336 0-3.664-1.047-3.828-2.524l-.008-.031h2.242l.016.031c.179.532.703.914 1.601.914.875 0 1.469-.375 1.469-.945v-.016c0-.46-.344-.75-1.219-.945l-1.437-.305c-1.641-.351-2.453-1.156-2.453-2.445v-.008c0-1.617 1.437-2.695 3.586-2.695 2.257 0 3.507 1.125 3.601 2.508v.031h-2.117l-.008-.04c-.125-.46-.633-.89-1.484-.89-.789 0-1.352.367-1.352.946v.007c0 .461.32.727 1.211.922l1.43.305c1.719.367 2.523 1.086 2.523 2.36v.007c0 1.703-1.57 2.813-3.773 2.813z" fill="#fff"/><path fill="#E2E2E2" d="M403 89H467V94H403z"/><path fill="#E2E2E2" d="M403 98H467V103H403z"/><path fill="#E2E2E2" d="M403 107H467V112H403z"/><path fill="#E2E2E2" d="M403 116H467V121H403z"/><path fill="#E2E2E2" d="M403 125H431V130H403z"/></g><g filter="url(#filter2_d_4590_31308)"><rect x="455" y="58" width="88" height="117" rx="4" fill="#fff" shape-rendering="crispEdges"/><path d="M455 62a4 4 0 0 1 4-4h25v23a4 4 0 0 1-4 4h-25V62z" fill="#D75C48"/><path d="M465.781 77.195c-.797 0-1.375-.586-1.375-1.36 0-.772.578-1.35 1.375-1.35.805 0 1.375.578 1.375 1.35 0 .774-.57 1.36-1.375 1.36zm3.922-.195v-8.602h2.281v1.336h.141c.273-.93 1.055-1.476 2.172-1.476.305 0 .625.047.851.11v1.991a4.73 4.73 0 0 0-1.046-.132c-1.297 0-2.118.742-2.118 1.96V77h-2.281z" fill="#fff"/><path fill="#E2E2E2" d="M467 101H531V106H467z"/><path fill="#E2E2E2" d="M467 110H531V115H467z"/><path fill="#E2E2E2" d="M467 119H531V124H467z"/><path fill="#E2E2E2" d="M467 128H531V133H467z"/><path fill="#E2E2E2" d="M467 137H495V142H467z"/></g><g filter="url(#filter3_d_4590_31308)"><rect x="48" y="34" width="88" height="117" rx="4" fill="#fff" shape-rendering="crispEdges"/><path d="M48 38a4 4 0 0 1 4-4h43v23a4 4 0 0 1-4 4H48V38z" fill="#6384DD"/><path d="M58.781 53.195c-.797 0-1.375-.586-1.375-1.36 0-.773.578-1.35 1.375-1.35.805 0 1.375.578 1.375 1.35 0 .774-.57 1.36-1.375 1.36zM62.703 53v-8.602h2.281v1.344h.141c.367-.969 1.258-1.531 2.383-1.531 1.172 0 2.039.594 2.39 1.586h.141c.39-.953 1.39-1.586 2.594-1.586 1.71 0 2.781 1.11 2.781 2.883V53h-2.281v-5.336c0-1.039-.469-1.562-1.422-1.562-.922 0-1.516.68-1.516 1.609V53h-2.28v-5.438c0-.921-.524-1.46-1.415-1.46-.89 0-1.516.726-1.516 1.71V53h-2.28zm17.992.133c-2.148 0-3.492-1.68-3.492-4.43v-.016c0-2.765 1.313-4.43 3.492-4.43 1.18 0 2.14.579 2.57 1.516h.141V41.11h2.281V53h-2.28v-1.336h-.141c-.446.93-1.36 1.469-2.57 1.469zm.774-1.89c1.21 0 1.96-.954 1.96-2.532v-.016c0-1.578-.757-2.547-1.96-2.547-1.203 0-1.946.97-1.946 2.54v.015c0 1.586.743 2.54 1.946 2.54z" fill="#fff"/><path fill="#E2E2E2" d="M60 77H124V82H60z"/><path fill="#E2E2E2" d="M60 86H124V91H60z"/><path fill="#E2E2E2" d="M60 95H124V100H60z"/><path fill="#E2E2E2" d="M60 104H124V109H60z"/><path fill="#E2E2E2" d="M60 113H88V118H60z"/></g><g filter="url(#filter4_d_4590_31308)"><rect x="112" y="46" width="88" height="117" rx="4" fill="#fff" shape-rendering="crispEdges"/><path d="M112 50a4 4 0 0 1 4-4h45v23a4 4 0 0 1-4 4h-45V50z" fill="#6384DD"/><path d="M122.781 65.195c-.797 0-1.375-.586-1.375-1.36 0-.773.578-1.35 1.375-1.35.805 0 1.375.578 1.375 1.35 0 .774-.57 1.36-1.375 1.36zm7.399-.015c-2.688 0-4.211-1.633-4.211-4.493v-.015c0-2.828 1.515-4.461 4.211-4.461 2.281 0 3.632 1.242 3.836 3.164v.023h-2.125l-.008-.015c-.149-.836-.719-1.383-1.695-1.383-1.227 0-1.899.953-1.899 2.672v.016c0 1.742.68 2.703 1.899 2.703.937 0 1.492-.446 1.695-1.305l.015-.031h2.11l-.008.047c-.234 1.875-1.578 3.078-3.82 3.078zm9.039 0c-2.336 0-3.664-1.047-3.828-2.524l-.008-.031h2.242l.016.031c.179.532.703.914 1.601.914.875 0 1.469-.375 1.469-.945v-.016c0-.46-.344-.75-1.219-.945l-1.437-.305c-1.641-.351-2.453-1.156-2.453-2.445v-.008c0-1.617 1.437-2.695 3.586-2.695 2.257 0 3.507 1.125 3.601 2.508v.031h-2.117l-.008-.04c-.125-.46-.633-.89-1.484-.89-.789 0-1.352.367-1.352.946v.007c0 .461.32.727 1.211.922l1.43.305c1.719.367 2.523 1.086 2.523 2.36v.007c0 1.703-1.57 2.813-3.773 2.813zm8.906 0c-2.336 0-3.664-1.047-3.828-2.524l-.008-.031h2.242l.016.031c.18.532.703.914 1.601.914.875 0 1.469-.375 1.469-.945v-.016c0-.46-.344-.75-1.219-.945l-1.437-.305c-1.641-.351-2.453-1.156-2.453-2.445v-.008c0-1.617 1.437-2.695 3.586-2.695 2.258 0 3.508 1.125 3.601 2.508v.031h-2.117l-.008-.04c-.125-.46-.632-.89-1.484-.89-.789 0-1.352.367-1.352.946v.007c0 .461.321.727 1.211.922l1.43.305c1.719.367 2.523 1.086 2.523 2.36v.007c0 1.703-1.57 2.813-3.773 2.813z" fill="#fff"/><path fill="#E2E2E2" d="M124 89H188V94H124z"/><path fill="#E2E2E2" d="M124 98H188V103H124z"/><path fill="#E2E2E2" d="M124 107H188V112H124z"/><path fill="#E2E2E2" d="M124 116H188V121H124z"/><path fill="#E2E2E2" d="M124 125H152V130H124z"/></g><g filter="url(#filter5_d_4590_31308)"><rect x="176" y="58" width="88" height="117" rx="4" fill="#fff" shape-rendering="crispEdges"/><path d="M176 62a4 4 0 0 1 4-4h32v23a4 4 0 0 1-4 4h-32V62z" fill="#6384DD"/><path d="M186.781 77.195c-.797 0-1.375-.586-1.375-1.36 0-.772.578-1.35 1.375-1.35.805 0 1.375.578 1.375 1.35 0 .774-.57 1.36-1.375 1.36zm5.078-10.117c-.703 0-1.289-.562-1.289-1.266 0-.71.586-1.273 1.289-1.273s1.282.563 1.282 1.273c0 .704-.579 1.266-1.282 1.266zm-1.914 12.852c-.203 0-.476-.016-.609-.024v-1.719c.086.008.187.008.289.008.781 0 1.094-.265 1.094-.976v-8.82H193v8.882c0 1.758-1.062 2.649-3.055 2.649zm8.774-2.75c-2.336 0-3.664-1.047-3.828-2.524l-.008-.031h2.242l.016.031c.179.531.703.914 1.601.914.875 0 1.469-.375 1.469-.945v-.016c0-.46-.344-.75-1.219-.945l-1.437-.305c-1.641-.351-2.453-1.156-2.453-2.445v-.008c0-1.617 1.437-2.695 3.586-2.695 2.257 0 3.507 1.125 3.601 2.508v.031h-2.117l-.008-.04c-.125-.46-.633-.89-1.484-.89-.789 0-1.352.368-1.352.946v.007c0 .461.32.727 1.211.922l1.43.305c1.719.367 2.523 1.086 2.523 2.36v.007c0 1.703-1.57 2.813-3.773 2.813z" fill="#fff"/><path fill="#E2E2E2" d="M188 101H252V106H188z"/><path fill="#E2E2E2" d="M188 110H252V115H188z"/><path fill="#E2E2E2" d="M188 119H252V124H188z"/><path fill="#E2E2E2" d="M188 128H252V133H188z"/><path fill="#E2E2E2" d="M188 137H216V142H188z"/></g><rect x="11" y="240" width="569" height="208" rx="8" fill="#6350C3" fill-opacity=".1" style="mix-blend-mode:multiply"/><g clip-path="url(#clip0_4590_31308)" filter="url(#filter6_d_4590_31308)"><rect x="335" y="277" width="112" height="81" rx="4" fill="#F5F5F5"/><path fill="#E2E2E2" d="M369 304H370V358H369z"/><path fill="#E2E2E2" d="M335 320H447V321H335z"/><path fill="#E2E2E2" d="M335 338H447V339H335z"/><path d="M335 281a4 4 0 0 1 4-4h104a4 4 0 0 1 4 4v23H335v-23z" fill="#E8E8E8"/><path d="M344.025 294.5v-8.455h5.537v1.459h-3.767v2.267h3.439v1.401h-3.439v3.328h-1.77zm9.838.135c-1.963 0-3.152-1.283-3.152-3.352v-.006c0-2.05 1.201-3.369 3.082-3.369 1.881 0 3.053 1.289 3.053 3.24v.534h-4.442c.018 1.06.586 1.675 1.494 1.675.75 0 1.166-.398 1.284-.644l.017-.035h1.594l-.012.058c-.199.809-1.031 1.899-2.918 1.899zm-.041-5.444c-.744 0-1.295.504-1.4 1.418h2.783c-.105-.937-.639-1.418-1.383-1.418zm8.233 5.409c-.914 0-1.6-.405-1.934-1.102h-.105v1.002h-1.711v-8.918h1.711v3.498h.105c.328-.703 1.049-1.137 1.934-1.137 1.634 0 2.619 1.248 2.619 3.323v.011c0 2.063-1.008 3.323-2.619 3.323zm-.586-1.418c.908 0 1.465-.715 1.465-1.905v-.011c0-1.178-.563-1.905-1.465-1.905-.897 0-1.471.727-1.471 1.91v.012c0 1.184.568 1.899 1.471 1.899zm9.756 1.318v-6.785h-.106l-2.074 1.441v-1.594l2.185-1.517h1.764v8.455h-1.769zm7.23.188c-1.91 0-3.17-1.026-3.287-2.538l-.006-.076h1.693l.006.065c.077.656.68 1.125 1.594 1.125.902 0 1.494-.504 1.494-1.219v-.012c0-.808-.603-1.254-1.629-1.254h-.966v-1.259h.943c.891 0 1.465-.469 1.465-1.155v-.011c0-.704-.487-1.137-1.319-1.137s-1.388.451-1.459 1.154l-.005.053h-1.629l.005-.07c.124-1.512 1.313-2.497 3.088-2.497 1.817 0 2.989.914 2.989 2.262v.012c0 1.055-.774 1.74-1.764 1.945v.035c1.26.118 2.08.844 2.08 1.993v.011c0 1.535-1.318 2.573-3.293 2.573z" fill="#C4C4C4"/></g><g clip-path="url(#clip1_4590_31308)" filter="url(#filter7_d_4590_31308)"><rect x="373" y="299" width="112" height="81" rx="4" fill="#F5F5F5"/><path fill="#E2E2E2" d="M407 326H408V380H407z"/><path fill="#E2E2E2" d="M373 342H485V343H373z"/><path fill="#E2E2E2" d="M373 360H485V361H373z"/><path d="M373 303a4 4 0 0 1 4-4h104a4 4 0 0 1 4 4v23H373v-23z" fill="#E8E8E8"/><path d="M382.025 316.5v-8.455h5.537v1.459h-3.767v2.267h3.439v1.401h-3.439v3.328h-1.77zm9.838.135c-1.963 0-3.152-1.283-3.152-3.352v-.006c0-2.05 1.201-3.369 3.082-3.369 1.881 0 3.053 1.289 3.053 3.24v.534h-4.442c.018 1.06.586 1.675 1.494 1.675.75 0 1.166-.398 1.284-.644l.017-.035h1.594l-.012.058c-.199.809-1.031 1.899-2.918 1.899zm-.041-5.444c-.744 0-1.295.504-1.4 1.418h2.783c-.105-.937-.639-1.418-1.383-1.418zm8.233 5.409c-.914 0-1.6-.405-1.934-1.102h-.105v1.002h-1.711v-8.918h1.711v3.498h.105c.328-.703 1.049-1.137 1.934-1.137 1.634 0 2.619 1.248 2.619 3.323v.011c0 2.063-1.008 3.323-2.619 3.323zm-.586-1.418c.908 0 1.465-.715 1.465-1.905v-.011c0-1.178-.563-1.905-1.465-1.905-.897 0-1.471.727-1.471 1.91v.012c0 1.184.568 1.899 1.471 1.899zm9.756 1.318v-6.785h-.106l-2.074 1.441v-1.594l2.185-1.517h1.764v8.455h-1.769zm7.992 0v-1.553h-4.143v-1.388a103.472 103.472 0 0 1 3.346-5.514h2.484v5.484h1.102v1.418h-1.102v1.553h-1.687zm-2.549-2.924h2.584v-4.189h-.094a73.189 73.189 0 0 0-2.49 4.095v.094z" fill="#C4C4C4"/></g><g filter="url(#filter8_d_4590_31308)"><rect x="411" y="321" width="112" height="81" rx="4" fill="#fff"/><path fill="#E2E2E2" d="M445 348H446V401H445z"/><path fill="#E2E2E2" d="M411 364H523V365H411z"/><path fill="#E2E2E2" d="M411 382H523V383H411z"/><path d="M411 325a4 4 0 0 1 4-4h104a4 4 0 0 1 4 4v23H411v-23z" fill="#D75C48"/><path d="M420.025 338.5v-8.455h5.537v1.459h-3.767v2.267h3.439v1.401h-3.439v3.328h-1.77zm9.838.135c-1.963 0-3.152-1.283-3.152-3.352v-.006c0-2.05 1.201-3.369 3.082-3.369 1.881 0 3.053 1.289 3.053 3.24v.534h-4.442c.018 1.06.586 1.675 1.494 1.675.75 0 1.166-.398 1.284-.644l.017-.035h1.594l-.012.058c-.199.809-1.031 1.899-2.918 1.899zm-.041-5.444c-.744 0-1.295.504-1.4 1.418h2.783c-.105-.937-.639-1.418-1.383-1.418zm8.233 5.409c-.914 0-1.6-.405-1.934-1.102h-.105v1.002h-1.711v-8.918h1.711v3.498h.105c.328-.703 1.049-1.137 1.934-1.137 1.634 0 2.619 1.248 2.619 3.323v.011c0 2.063-1.008 3.323-2.619 3.323zm-.586-1.418c.908 0 1.465-.715 1.465-1.905v-.011c0-1.178-.563-1.905-1.465-1.905-.897 0-1.471.727-1.471 1.91v.012c0 1.184.568 1.899 1.471 1.899zm9.756 1.318v-6.785h-.106l-2.074 1.441v-1.594l2.185-1.517h1.764v8.455h-1.769zm7.277.217c-1.811 0-3.006-1.078-3.106-2.49l-.005-.082h1.605l.012.041c.123.621.703 1.119 1.5 1.119.908 0 1.541-.639 1.541-1.547v-.012c0-.902-.639-1.529-1.535-1.529-.428 0-.791.123-1.073.363a1.514 1.514 0 0 0-.392.469h-1.518l.393-5.004h5.285v1.406h-3.908l-.211 2.408h.105c.34-.568.996-.92 1.805-.92 1.576 0 2.713 1.161 2.713 2.772v.012c0 1.781-1.313 2.994-3.211 2.994z" fill="#fff"/></g><g filter="url(#filter9_d_4590_31308)"><rect x="58" y="277" width="194" height="126.639" rx="7.185" fill="#454545"/><rect x="58.449" y="277.449" width="193.102" height="125.741" rx="6.736" stroke="#454545" stroke-width=".898"/><rect x="65.185" y="284.186" width="52.991" height="7.185" rx="3.593" fill="#6E6E6E"/><rect x="65.185" y="298.556" width="39.519" height="24.25" rx="3.593" fill="#6384DD"/><rect x="111.889" y="298.556" width="39.519" height="24.25" rx="3.593" fill="#6384DD"/><rect x="158.593" y="298.556" width="39.519" height="24.25" rx="3.593" fill="#6384DD"/><rect x="205.296" y="298.556" width="39.519" height="24.25" rx="3.593" fill="#6384DD"/><rect opacity=".5" x="65.185" y="329.991" width="179.63" height="29.639" rx="3.593" fill="#6384DD"/><rect opacity=".7" x="65.185" y="366.814" width="86.222" height="29.639" rx="3.593" fill="#6384DD"/><rect opacity=".7" x="158.592" y="366.814" width="86.222" height="29.639" rx="3.593" fill="#6384DD"/></g><defs><filter id="filter0_d_4590_31308" x="315" y="26" width="112" height="141" filterUnits="userSpaceOnUse" color-interpolation-filters="sRGB"><feFlood flood-opacity="0" result="BackgroundImageFix"/><feColorMatrix in="SourceAlpha" values="0 0 0 0 0 0 0 0 0 0 0 0 0 0 0 0 0 0 127 0" result="hardAlpha"/><feOffset dy="4"/><feGaussianBlur stdDeviation="6"/><feComposite in2="hardAlpha" operator="out"/><feColorMatrix values="0 0 0 0 0 0 0 0 0 0 0 0 0 0 0 0 0 0 0.15 0"/><feBlend in2="BackgroundImageFix" result="effect1_dropShadow_4590_31308"/><feBlend in="SourceGraphic" in2="effect1_dropShadow_4590_31308" result="shape"/></filter><filter id="filter1_d_4590_31308" x="379" y="38" width="112" height="141" filterUnits="userSpaceOnUse" color-interpolation-filters="sRGB"><feFlood flood-opacity="0" result="BackgroundImageFix"/><feColorMatrix in="SourceAlpha" values="0 0 0 0 0 0 0 0 0 0 0 0 0 0 0 0 0 0 127 0" result="hardAlpha"/><feOffset dy="4"/><feGaussianBlur stdDeviation="6"/><feComposite in2="hardAlpha" operator="out"/><feColorMatrix values="0 0 0 0 0 0 0 0 0 0 0 0 0 0 0 0 0 0 0.15 0"/><feBlend in2="BackgroundImageFix" result="effect1_dropShadow_4590_31308"/><feBlend in="SourceGraphic" in2="effect1_dropShadow_4590_31308" result="shape"/></filter><filter id="filter2_d_4590_31308" x="443" y="50" width="112" height="141" filterUnits="userSpaceOnUse" color-interpolation-filters="sRGB"><feFlood flood-opacity="0" result="BackgroundImageFix"/><feColorMatrix in="SourceAlpha" values="0 0 0 0 0 0 0 0 0 0 0 0 0 0 0 0 0 0 127 0" result="hardAlpha"/><feOffset dy="4"/><feGaussianBlur stdDeviation="6"/><feComposite in2="hardAlpha" operator="out"/><feColorMatrix values="0 0 0 0 0 0 0 0 0 0 0 0 0 0 0 0 0 0 0.15 0"/><feBlend in2="BackgroundImageFix" result="effect1_dropShadow_4590_31308"/><feBlend in="SourceGraphic" in2="effect1_dropShadow_4590_31308" result="shape"/></filter><filter id="filter3_d_4590_31308" x="36" y="26" width="112" height="141" filterUnits="userSpaceOnUse" color-interpolation-filters="sRGB"><feFlood flood-opacity="0" result="BackgroundImageFix"/><feColorMatrix in="SourceAlpha" values="0 0 0 0 0 0 0 0 0 0 0 0 0 0 0 0 0 0 127 0" result="hardAlpha"/><feOffset dy="4"/><feGaussianBlur stdDeviation="6"/><feComposite in2="hardAlpha" operator="out"/><feColorMatrix values="0 0 0 0 0 0 0 0 0 0 0 0 0 0 0 0 0 0 0.15 0"/><feBlend in2="BackgroundImageFix" result="effect1_dropShadow_4590_31308"/><feBlend in="SourceGraphic" in2="effect1_dropShadow_4590_31308" result="shape"/></filter><filter id="filter4_d_4590_31308" x="100" y="38" width="112" height="141" filterUnits="userSpaceOnUse" color-interpolation-filters="sRGB"><feFlood flood-opacity="0" result="BackgroundImageFix"/><feColorMatrix in="SourceAlpha" values="0 0 0 0 0 0 0 0 0 0 0 0 0 0 0 0 0 0 127 0" result="hardAlpha"/><feOffset dy="4"/><feGaussianBlur stdDeviation="6"/><feComposite in2="hardAlpha" operator="out"/><feColorMatrix values="0 0 0 0 0 0 0 0 0 0 0 0 0 0 0 0 0 0 0.15 0"/><feBlend in2="BackgroundImageFix" result="effect1_dropShadow_4590_31308"/><feBlend in="SourceGraphic" in2="effect1_dropShadow_4590_31308" result="shape"/></filter><filter id="filter5_d_4590_31308" x="164" y="50" width="112" height="141" filterUnits="userSpaceOnUse" color-interpolation-filters="sRGB"><feFlood flood-opacity="0" result="BackgroundImageFix"/><feColorMatrix in="SourceAlpha" values="0 0 0 0 0 0 0 0 0 0 0 0 0 0 0 0 0 0 127 0" result="hardAlpha"/><feOffset dy="4"/><feGaussianBlur stdDeviation="6"/><feComposite in2="hardAlpha" operator="out"/><feColorMatrix values="0 0 0 0 0 0 0 0 0 0 0 0 0 0 0 0 0 0 0.15 0"/><feBlend in2="BackgroundImageFix" result="effect1_dropShadow_4590_31308"/><feBlend in="SourceGraphic" in2="effect1_dropShadow_4590_31308" result="shape"/></filter><filter id="filter6_d_4590_31308" x="323" y="269" width="136" height="105" filterUnits="userSpaceOnUse" color-interpolation-filters="sRGB"><feFlood flood-opacity="0" result="BackgroundImageFix"/><feColorMatrix in="SourceAlpha" values="0 0 0 0 0 0 0 0 0 0 0 0 0 0 0 0 0 0 127 0" result="hardAlpha"/><feOffset dy="4"/><feGaussianBlur stdDeviation="6"/><feComposite in2="hardAlpha" operator="out"/><feColorMatrix values="0 0 0 0 0 0 0 0 0 0 0 0 0 0 0 0 0 0 0.15 0"/><feBlend in2="BackgroundImageFix" result="effect1_dropShadow_4590_31308"/><feBlend in="SourceGraphic" in2="effect1_dropShadow_4590_31308" result="shape"/></filter><filter id="filter7_d_4590_31308" x="361" y="291" width="136" height="105" filterUnits="userSpaceOnUse" color-interpolation-filters="sRGB"><feFlood flood-opacity="0" result="BackgroundImageFix"/><feColorMatrix in="SourceAlpha" values="0 0 0 0 0 0 0 0 0 0 0 0 0 0 0 0 0 0 127 0" result="hardAlpha"/><feOffset dy="4"/><feGaussianBlur stdDeviation="6"/><feComposite in2="hardAlpha" operator="out"/><feColorMatrix values="0 0 0 0 0 0 0 0 0 0 0 0 0 0 0 0 0 0 0.15 0"/><feBlend in2="BackgroundImageFix" result="effect1_dropShadow_4590_31308"/><feBlend in="SourceGraphic" in2="effect1_dropShadow_4590_31308" result="shape"/></filter><filter id="filter8_d_4590_31308" x="399" y="313" width="136" height="105" filterUnits="userSpaceOnUse" color-interpolation-filters="sRGB"><feFlood flood-opacity="0" result="BackgroundImageFix"/><feColorMatrix in="SourceAlpha" values="0 0 0 0 0 0 0 0 0 0 0 0 0 0 0 0 0 0 127 0" result="hardAlpha"/><feOffset dy="4"/><feGaussianBlur stdDeviation="6"/><feComposite in2="hardAlpha" operator="out"/><feColorMatrix values="0 0 0 0 0 0 0 0 0 0 0 0 0 0 0 0 0 0 0.15 0"/><feBlend in2="BackgroundImageFix" result="effect1_dropShadow_4590_31308"/><feBlend in="SourceGraphic" in2="effect1_dropShadow_4590_31308" result="shape"/></filter><filter id="filter9_d_4590_31308" x="47.222" y="269.815" width="215.556" height="148.194" filterUnits="userSpaceOnUse" color-interpolation-filters="sRGB"><feFlood flood-opacity="0" result="BackgroundImageFix"/><feColorMatrix in="SourceAlpha" values="0 0 0 0 0 0 0 0 0 0 0 0 0 0 0 0 0 0 127 0" result="hardAlpha"/><feOffset dy="3.593"/><feGaussianBlur stdDeviation="5.389"/><feComposite in2="hardAlpha" operator="out"/><feColorMatrix values="0 0 0 0 0 0 0 0 0 0 0 0 0 0 0 0 0 0 0.1 0"/><feBlend in2="BackgroundImageFix" result="effect1_dropShadow_4590_31308"/><feBlend in="SourceGraphic" in2="effect1_dropShadow_4590_31308" result="shape"/></filter><clipPath id="clip0_4590_31308"><rect x="335" y="277" width="112" height="81" rx="4" fill="#fff"/></clipPath><clipPath id="clip1_4590_31308"><rect x="373" y="299" width="112" height="81" rx="4" fill="#fff"/></clipPath></defs></svg>